<svg xmlns="http://www.w3.org/2000/svg" viewBox="0 0 782 225" font-family="Arial, 'Helvetica Neue', Helvetica, sans-serif">
  <defs>
    <linearGradient id="dotg" x1="0" y1="0" x2="0" y2="1">
      <stop offset="0" stop-color="#1C7FB9"/>
      <stop offset="1" stop-color="#46B7E2"/>
    </linearGradient>
    <linearGradient id="txtg" x1="0" y1="0" x2="1" y2="1">
      <stop offset="0" stop-color="#1B6FA8"/>
      <stop offset="1" stop-color="#3AA9DD"/>
    </linearGradient>
  </defs>
  <g fill="url(#dotg)"><circle cx="53.0" cy="24.2" r="2.55"/><circle cx="61.2" cy="24.2" r="2.55"/><circle cx="69.4" cy="24.2" r="2.55"/><circle cx="77.6" cy="24.2" r="2.55"/><circle cx="176.0" cy="24.2" r="2.55"/><circle cx="184.2" cy="24.2" r="2.55"/><circle cx="192.4" cy="24.2" r="2.55"/><circle cx="200.6" cy="24.2" r="2.55"/><circle cx="405.6" cy="24.2" r="2.55"/><circle cx="413.8" cy="24.2" r="2.55"/><circle cx="422.0" cy="24.2" r="2.55"/><circle cx="430.2" cy="24.2" r="2.55"/><circle cx="36.6" cy="32.4" r="2.55"/><circle cx="44.8" cy="32.4" r="2.55"/><circle cx="53.0" cy="32.4" r="2.55"/><circle cx="61.2" cy="32.4" r="2.55"/><circle cx="69.4" cy="32.4" r="2.55"/><circle cx="77.6" cy="32.4" r="2.55"/><circle cx="85.8" cy="32.4" r="2.55"/><circle cx="94.0" cy="32.4" r="2.55"/><circle cx="151.4" cy="32.4" r="2.55"/><circle cx="159.6" cy="32.4" r="2.55"/><circle cx="167.8" cy="32.4" r="2.55"/><circle cx="176.0" cy="32.4" r="2.55"/><circle cx="184.2" cy="32.4" r="2.55"/><circle cx="192.4" cy="32.4" r="2.55"/><circle cx="200.6" cy="32.4" r="2.55"/><circle cx="331.8" cy="32.4" r="2.55"/><circle cx="340.0" cy="32.4" r="2.55"/><circle cx="348.2" cy="32.4" r="2.55"/><circle cx="356.4" cy="32.4" r="2.55"/><circle cx="364.6" cy="32.4" r="2.55"/><circle cx="389.2" cy="32.4" r="2.55"/><circle cx="397.4" cy="32.4" r="2.55"/><circle cx="405.6" cy="32.4" r="2.55"/><circle cx="413.8" cy="32.4" r="2.55"/><circle cx="422.0" cy="32.4" r="2.55"/><circle cx="430.2" cy="32.4" r="2.55"/><circle cx="438.4" cy="32.4" r="2.55"/><circle cx="446.6" cy="32.4" r="2.55"/><circle cx="28.4" cy="40.6" r="2.55"/><circle cx="36.6" cy="40.6" r="2.55"/><circle cx="44.8" cy="40.6" r="2.55"/><circle cx="53.0" cy="40.6" r="2.55"/><circle cx="61.2" cy="40.6" r="2.55"/><circle cx="69.4" cy="40.6" r="2.55"/><circle cx="77.6" cy="40.6" r="2.55"/><circle cx="85.8" cy="40.6" r="2.55"/><circle cx="94.0" cy="40.6" r="2.55"/><circle cx="102.2" cy="40.6" r="2.55"/><circle cx="110.4" cy="40.6" r="2.55"/><circle cx="143.2" cy="40.6" r="2.55"/><circle cx="151.4" cy="40.6" r="2.55"/><circle cx="159.6" cy="40.6" r="2.55"/><circle cx="167.8" cy="40.6" r="2.55"/><circle cx="176.0" cy="40.6" r="2.55"/><circle cx="258.0" cy="40.6" r="2.55"/><circle cx="266.2" cy="40.6" r="2.55"/><circle cx="274.4" cy="40.6" r="2.55"/><circle cx="282.6" cy="40.6" r="2.55"/><circle cx="290.8" cy="40.6" r="2.55"/><circle cx="323.6" cy="40.6" r="2.55"/><circle cx="331.8" cy="40.6" r="2.55"/><circle cx="340.0" cy="40.6" r="2.55"/><circle cx="348.2" cy="40.6" r="2.55"/><circle cx="356.4" cy="40.6" r="2.55"/><circle cx="364.6" cy="40.6" r="2.55"/><circle cx="372.8" cy="40.6" r="2.55"/><circle cx="381.0" cy="40.6" r="2.55"/><circle cx="389.2" cy="40.6" r="2.55"/><circle cx="397.4" cy="40.6" r="2.55"/><circle cx="405.6" cy="40.6" r="2.55"/><circle cx="413.8" cy="40.6" r="2.55"/><circle cx="422.0" cy="40.6" r="2.55"/><circle cx="430.2" cy="40.6" r="2.55"/><circle cx="438.4" cy="40.6" r="2.55"/><circle cx="446.6" cy="40.6" r="2.55"/><circle cx="20.2" cy="48.8" r="2.55"/><circle cx="28.4" cy="48.8" r="2.55"/><circle cx="36.6" cy="48.8" r="2.55"/><circle cx="44.8" cy="48.8" r="2.55"/><circle cx="53.0" cy="48.8" r="2.55"/><circle cx="61.2" cy="48.8" r="2.55"/><circle cx="69.4" cy="48.8" r="2.55"/><circle cx="77.6" cy="48.8" r="2.55"/><circle cx="85.8" cy="48.8" r="2.55"/><circle cx="94.0" cy="48.8" r="2.55"/><circle cx="102.2" cy="48.8" r="2.55"/><circle cx="110.4" cy="48.8" r="2.55"/><circle cx="118.6" cy="48.8" r="2.55"/><circle cx="135.0" cy="48.8" r="2.55"/><circle cx="143.2" cy="48.8" r="2.55"/><circle cx="151.4" cy="48.8" r="2.55"/><circle cx="159.6" cy="48.8" r="2.55"/><circle cx="241.6" cy="48.8" r="2.55"/><circle cx="249.8" cy="48.8" r="2.55"/><circle cx="258.0" cy="48.8" r="2.55"/><circle cx="266.2" cy="48.8" r="2.55"/><circle cx="274.4" cy="48.8" r="2.55"/><circle cx="282.6" cy="48.8" r="2.55"/><circle cx="290.8" cy="48.8" r="2.55"/><circle cx="299.0" cy="48.8" r="2.55"/><circle cx="307.2" cy="48.8" r="2.55"/><circle cx="315.4" cy="48.8" r="2.55"/><circle cx="323.6" cy="48.8" r="2.55"/><circle cx="331.8" cy="48.8" r="2.55"/><circle cx="340.0" cy="48.8" r="2.55"/><circle cx="348.2" cy="48.8" r="2.55"/><circle cx="356.4" cy="48.8" r="2.55"/><circle cx="364.6" cy="48.8" r="2.55"/><circle cx="372.8" cy="48.8" r="2.55"/><circle cx="381.0" cy="48.8" r="2.55"/><circle cx="389.2" cy="48.8" r="2.55"/><circle cx="397.4" cy="48.8" r="2.55"/><circle cx="405.6" cy="48.8" r="2.55"/><circle cx="413.8" cy="48.8" r="2.55"/><circle cx="422.0" cy="48.8" r="2.55"/><circle cx="430.2" cy="48.8" r="2.55"/><circle cx="438.4" cy="48.8" r="2.55"/><circle cx="446.6" cy="48.8" r="2.55"/><circle cx="454.8" cy="48.8" r="2.55"/><circle cx="463.0" cy="48.8" r="2.55"/><circle cx="471.2" cy="48.8" r="2.55"/><circle cx="479.4" cy="48.8" r="2.55"/><circle cx="487.6" cy="48.8" r="2.55"/><circle cx="495.8" cy="48.8" r="2.55"/><circle cx="504.0" cy="48.8" r="2.55"/><circle cx="512.2" cy="48.8" r="2.55"/><circle cx="20.2" cy="57.0" r="2.55"/><circle cx="28.4" cy="57.0" r="2.55"/><circle cx="36.6" cy="57.0" r="2.55"/><circle cx="44.8" cy="57.0" r="2.55"/><circle cx="53.0" cy="57.0" r="2.55"/><circle cx="61.2" cy="57.0" r="2.55"/><circle cx="69.4" cy="57.0" r="2.55"/><circle cx="77.6" cy="57.0" r="2.55"/><circle cx="85.8" cy="57.0" r="2.55"/><circle cx="94.0" cy="57.0" r="2.55"/><circle cx="102.2" cy="57.0" r="2.55"/><circle cx="110.4" cy="57.0" r="2.55"/><circle cx="118.6" cy="57.0" r="2.55"/><circle cx="217.0" cy="57.0" r="2.55"/><circle cx="225.2" cy="57.0" r="2.55"/><circle cx="233.4" cy="57.0" r="2.55"/><circle cx="241.6" cy="57.0" r="2.55"/><circle cx="249.8" cy="57.0" r="2.55"/><circle cx="258.0" cy="57.0" r="2.55"/><circle cx="266.2" cy="57.0" r="2.55"/><circle cx="274.4" cy="57.0" r="2.55"/><circle cx="282.6" cy="57.0" r="2.55"/><circle cx="290.8" cy="57.0" r="2.55"/><circle cx="299.0" cy="57.0" r="2.55"/><circle cx="307.2" cy="57.0" r="2.55"/><circle cx="315.4" cy="57.0" r="2.55"/><circle cx="323.6" cy="57.0" r="2.55"/><circle cx="331.8" cy="57.0" r="2.55"/><circle cx="340.0" cy="57.0" r="2.55"/><circle cx="348.2" cy="57.0" r="2.55"/><circle cx="356.4" cy="57.0" r="2.55"/><circle cx="364.6" cy="57.0" r="2.55"/><circle cx="372.8" cy="57.0" r="2.55"/><circle cx="381.0" cy="57.0" r="2.55"/><circle cx="389.2" cy="57.0" r="2.55"/><circle cx="397.4" cy="57.0" r="2.55"/><circle cx="405.6" cy="57.0" r="2.55"/><circle cx="413.8" cy="57.0" r="2.55"/><circle cx="422.0" cy="57.0" r="2.55"/><circle cx="430.2" cy="57.0" r="2.55"/><circle cx="438.4" cy="57.0" r="2.55"/><circle cx="446.6" cy="57.0" r="2.55"/><circle cx="454.8" cy="57.0" r="2.55"/><circle cx="463.0" cy="57.0" r="2.55"/><circle cx="471.2" cy="57.0" r="2.55"/><circle cx="479.4" cy="57.0" r="2.55"/><circle cx="487.6" cy="57.0" r="2.55"/><circle cx="495.8" cy="57.0" r="2.55"/><circle cx="504.0" cy="57.0" r="2.55"/><circle cx="512.2" cy="57.0" r="2.55"/><circle cx="28.4" cy="65.2" r="2.55"/><circle cx="36.6" cy="65.2" r="2.55"/><circle cx="44.8" cy="65.2" r="2.55"/><circle cx="53.0" cy="65.2" r="2.55"/><circle cx="61.2" cy="65.2" r="2.55"/><circle cx="69.4" cy="65.2" r="2.55"/><circle cx="77.6" cy="65.2" r="2.55"/><circle cx="85.8" cy="65.2" r="2.55"/><circle cx="94.0" cy="65.2" r="2.55"/><circle cx="102.2" cy="65.2" r="2.55"/><circle cx="110.4" cy="65.2" r="2.55"/><circle cx="118.6" cy="65.2" r="2.55"/><circle cx="208.8" cy="65.2" r="2.55"/><circle cx="217.0" cy="65.2" r="2.55"/><circle cx="225.2" cy="65.2" r="2.55"/><circle cx="233.4" cy="65.2" r="2.55"/><circle cx="241.6" cy="65.2" r="2.55"/><circle cx="249.8" cy="65.2" r="2.55"/><circle cx="258.0" cy="65.2" r="2.55"/><circle cx="266.2" cy="65.2" r="2.55"/><circle cx="274.4" cy="65.2" r="2.55"/><circle cx="282.6" cy="65.2" r="2.55"/><circle cx="290.8" cy="65.2" r="2.55"/><circle cx="299.0" cy="65.2" r="2.55"/><circle cx="307.2" cy="65.2" r="2.55"/><circle cx="315.4" cy="65.2" r="2.55"/><circle cx="323.6" cy="65.2" r="2.55"/><circle cx="331.8" cy="65.2" r="2.55"/><circle cx="340.0" cy="65.2" r="2.55"/><circle cx="348.2" cy="65.2" r="2.55"/><circle cx="356.4" cy="65.2" r="2.55"/><circle cx="364.6" cy="65.2" r="2.55"/><circle cx="372.8" cy="65.2" r="2.55"/><circle cx="381.0" cy="65.2" r="2.55"/><circle cx="389.2" cy="65.2" r="2.55"/><circle cx="397.4" cy="65.2" r="2.55"/><circle cx="405.6" cy="65.2" r="2.55"/><circle cx="413.8" cy="65.2" r="2.55"/><circle cx="422.0" cy="65.2" r="2.55"/><circle cx="430.2" cy="65.2" r="2.55"/><circle cx="438.4" cy="65.2" r="2.55"/><circle cx="446.6" cy="65.2" r="2.55"/><circle cx="454.8" cy="65.2" r="2.55"/><circle cx="463.0" cy="65.2" r="2.55"/><circle cx="471.2" cy="65.2" r="2.55"/><circle cx="479.4" cy="65.2" r="2.55"/><circle cx="487.6" cy="65.2" r="2.55"/><circle cx="495.8" cy="65.2" r="2.55"/><circle cx="504.0" cy="65.2" r="2.55"/><circle cx="512.2" cy="65.2" r="2.55"/><circle cx="36.6" cy="73.4" r="2.55"/><circle cx="44.8" cy="73.4" r="2.55"/><circle cx="53.0" cy="73.4" r="2.55"/><circle cx="61.2" cy="73.4" r="2.55"/><circle cx="69.4" cy="73.4" r="2.55"/><circle cx="77.6" cy="73.4" r="2.55"/><circle cx="85.8" cy="73.4" r="2.55"/><circle cx="94.0" cy="73.4" r="2.55"/><circle cx="102.2" cy="73.4" r="2.55"/><circle cx="110.4" cy="73.4" r="2.55"/><circle cx="200.6" cy="73.4" r="2.55"/><circle cx="208.8" cy="73.4" r="2.55"/><circle cx="217.0" cy="73.4" r="2.55"/><circle cx="225.2" cy="73.4" r="2.55"/><circle cx="233.4" cy="73.4" r="2.55"/><circle cx="241.6" cy="73.4" r="2.55"/><circle cx="249.8" cy="73.4" r="2.55"/><circle cx="258.0" cy="73.4" r="2.55"/><circle cx="266.2" cy="73.4" r="2.55"/><circle cx="274.4" cy="73.4" r="2.55"/><circle cx="282.6" cy="73.4" r="2.55"/><circle cx="290.8" cy="73.4" r="2.55"/><circle cx="299.0" cy="73.4" r="2.55"/><circle cx="307.2" cy="73.4" r="2.55"/><circle cx="315.4" cy="73.4" r="2.55"/><circle cx="323.6" cy="73.4" r="2.55"/><circle cx="331.8" cy="73.4" r="2.55"/><circle cx="340.0" cy="73.4" r="2.55"/><circle cx="348.2" cy="73.4" r="2.55"/><circle cx="356.4" cy="73.4" r="2.55"/><circle cx="364.6" cy="73.4" r="2.55"/><circle cx="372.8" cy="73.4" r="2.55"/><circle cx="381.0" cy="73.4" r="2.55"/><circle cx="389.2" cy="73.4" r="2.55"/><circle cx="397.4" cy="73.4" r="2.55"/><circle cx="405.6" cy="73.4" r="2.55"/><circle cx="413.8" cy="73.4" r="2.55"/><circle cx="422.0" cy="73.4" r="2.55"/><circle cx="430.2" cy="73.4" r="2.55"/><circle cx="438.4" cy="73.4" r="2.55"/><circle cx="446.6" cy="73.4" r="2.55"/><circle cx="454.8" cy="73.4" r="2.55"/><circle cx="463.0" cy="73.4" r="2.55"/><circle cx="471.2" cy="73.4" r="2.55"/><circle cx="479.4" cy="73.4" r="2.55"/><circle cx="487.6" cy="73.4" r="2.55"/><circle cx="495.8" cy="73.4" r="2.55"/><circle cx="504.0" cy="73.4" r="2.55"/><circle cx="512.2" cy="73.4" r="2.55"/><circle cx="44.8" cy="81.6" r="2.55"/><circle cx="53.0" cy="81.6" r="2.55"/><circle cx="61.2" cy="81.6" r="2.55"/><circle cx="69.4" cy="81.6" r="2.55"/><circle cx="77.6" cy="81.6" r="2.55"/><circle cx="85.8" cy="81.6" r="2.55"/><circle cx="94.0" cy="81.6" r="2.55"/><circle cx="102.2" cy="81.6" r="2.55"/><circle cx="110.4" cy="81.6" r="2.55"/><circle cx="192.4" cy="81.6" r="2.55"/><circle cx="200.6" cy="81.6" r="2.55"/><circle cx="208.8" cy="81.6" r="2.55"/><circle cx="217.0" cy="81.6" r="2.55"/><circle cx="225.2" cy="81.6" r="2.55"/><circle cx="233.4" cy="81.6" r="2.55"/><circle cx="241.6" cy="81.6" r="2.55"/><circle cx="249.8" cy="81.6" r="2.55"/><circle cx="258.0" cy="81.6" r="2.55"/><circle cx="266.2" cy="81.6" r="2.55"/><circle cx="274.4" cy="81.6" r="2.55"/><circle cx="282.6" cy="81.6" r="2.55"/><circle cx="290.8" cy="81.6" r="2.55"/><circle cx="299.0" cy="81.6" r="2.55"/><circle cx="307.2" cy="81.6" r="2.55"/><circle cx="315.4" cy="81.6" r="2.55"/><circle cx="323.6" cy="81.6" r="2.55"/><circle cx="331.8" cy="81.6" r="2.55"/><circle cx="340.0" cy="81.6" r="2.55"/><circle cx="348.2" cy="81.6" r="2.55"/><circle cx="356.4" cy="81.6" r="2.55"/><circle cx="364.6" cy="81.6" r="2.55"/><circle cx="372.8" cy="81.6" r="2.55"/><circle cx="381.0" cy="81.6" r="2.55"/><circle cx="389.2" cy="81.6" r="2.55"/><circle cx="397.4" cy="81.6" r="2.55"/><circle cx="405.6" cy="81.6" r="2.55"/><circle cx="422.0" cy="81.6" r="2.55"/><circle cx="430.2" cy="81.6" r="2.55"/><circle cx="438.4" cy="81.6" r="2.55"/><circle cx="446.6" cy="81.6" r="2.55"/><circle cx="53.0" cy="89.8" r="2.55"/><circle cx="61.2" cy="89.8" r="2.55"/><circle cx="69.4" cy="89.8" r="2.55"/><circle cx="77.6" cy="89.8" r="2.55"/><circle cx="85.8" cy="89.8" r="2.55"/><circle cx="94.0" cy="89.8" r="2.55"/><circle cx="102.2" cy="89.8" r="2.55"/><circle cx="110.4" cy="89.8" r="2.55"/><circle cx="192.4" cy="89.8" r="2.55"/><circle cx="200.6" cy="89.8" r="2.55"/><circle cx="208.8" cy="89.8" r="2.55"/><circle cx="217.0" cy="89.8" r="2.55"/><circle cx="225.2" cy="89.8" r="2.55"/><circle cx="233.4" cy="89.8" r="2.55"/><circle cx="241.6" cy="89.8" r="2.55"/><circle cx="249.8" cy="89.8" r="2.55"/><circle cx="258.0" cy="89.8" r="2.55"/><circle cx="266.2" cy="89.8" r="2.55"/><circle cx="274.4" cy="89.8" r="2.55"/><circle cx="282.6" cy="89.8" r="2.55"/><circle cx="290.8" cy="89.8" r="2.55"/><circle cx="299.0" cy="89.8" r="2.55"/><circle cx="307.2" cy="89.8" r="2.55"/><circle cx="315.4" cy="89.8" r="2.55"/><circle cx="323.6" cy="89.8" r="2.55"/><circle cx="331.8" cy="89.8" r="2.55"/><circle cx="340.0" cy="89.8" r="2.55"/><circle cx="348.2" cy="89.8" r="2.55"/><circle cx="356.4" cy="89.8" r="2.55"/><circle cx="364.6" cy="89.8" r="2.55"/><circle cx="372.8" cy="89.8" r="2.55"/><circle cx="381.0" cy="89.8" r="2.55"/><circle cx="389.2" cy="89.8" r="2.55"/><circle cx="397.4" cy="89.8" r="2.55"/><circle cx="413.8" cy="89.8" r="2.55"/><circle cx="422.0" cy="89.8" r="2.55"/><circle cx="430.2" cy="89.8" r="2.55"/><circle cx="438.4" cy="89.8" r="2.55"/><circle cx="446.6" cy="89.8" r="2.55"/><circle cx="53.0" cy="98.0" r="2.55"/><circle cx="61.2" cy="98.0" r="2.55"/><circle cx="69.4" cy="98.0" r="2.55"/><circle cx="77.6" cy="98.0" r="2.55"/><circle cx="85.8" cy="98.0" r="2.55"/><circle cx="94.0" cy="98.0" r="2.55"/><circle cx="102.2" cy="98.0" r="2.55"/><circle cx="192.4" cy="98.0" r="2.55"/><circle cx="200.6" cy="98.0" r="2.55"/><circle cx="208.8" cy="98.0" r="2.55"/><circle cx="217.0" cy="98.0" r="2.55"/><circle cx="225.2" cy="98.0" r="2.55"/><circle cx="233.4" cy="98.0" r="2.55"/><circle cx="241.6" cy="98.0" r="2.55"/><circle cx="249.8" cy="98.0" r="2.55"/><circle cx="258.0" cy="98.0" r="2.55"/><circle cx="266.2" cy="98.0" r="2.55"/><circle cx="274.4" cy="98.0" r="2.55"/><circle cx="282.6" cy="98.0" r="2.55"/><circle cx="290.8" cy="98.0" r="2.55"/><circle cx="299.0" cy="98.0" r="2.55"/><circle cx="307.2" cy="98.0" r="2.55"/><circle cx="315.4" cy="98.0" r="2.55"/><circle cx="323.6" cy="98.0" r="2.55"/><circle cx="331.8" cy="98.0" r="2.55"/><circle cx="340.0" cy="98.0" r="2.55"/><circle cx="348.2" cy="98.0" r="2.55"/><circle cx="356.4" cy="98.0" r="2.55"/><circle cx="364.6" cy="98.0" r="2.55"/><circle cx="372.8" cy="98.0" r="2.55"/><circle cx="381.0" cy="98.0" r="2.55"/><circle cx="397.4" cy="98.0" r="2.55"/><circle cx="405.6" cy="98.0" r="2.55"/><circle cx="422.0" cy="98.0" r="2.55"/><circle cx="430.2" cy="98.0" r="2.55"/><circle cx="438.4" cy="98.0" r="2.55"/><circle cx="446.6" cy="98.0" r="2.55"/><circle cx="61.2" cy="106.2" r="2.55"/><circle cx="69.4" cy="106.2" r="2.55"/><circle cx="77.6" cy="106.2" r="2.55"/><circle cx="85.8" cy="106.2" r="2.55"/><circle cx="94.0" cy="106.2" r="2.55"/><circle cx="192.4" cy="106.2" r="2.55"/><circle cx="200.6" cy="106.2" r="2.55"/><circle cx="208.8" cy="106.2" r="2.55"/><circle cx="217.0" cy="106.2" r="2.55"/><circle cx="225.2" cy="106.2" r="2.55"/><circle cx="233.4" cy="106.2" r="2.55"/><circle cx="241.6" cy="106.2" r="2.55"/><circle cx="249.8" cy="106.2" r="2.55"/><circle cx="258.0" cy="106.2" r="2.55"/><circle cx="266.2" cy="106.2" r="2.55"/><circle cx="274.4" cy="106.2" r="2.55"/><circle cx="282.6" cy="106.2" r="2.55"/><circle cx="290.8" cy="106.2" r="2.55"/><circle cx="299.0" cy="106.2" r="2.55"/><circle cx="307.2" cy="106.2" r="2.55"/><circle cx="315.4" cy="106.2" r="2.55"/><circle cx="323.6" cy="106.2" r="2.55"/><circle cx="331.8" cy="106.2" r="2.55"/><circle cx="340.0" cy="106.2" r="2.55"/><circle cx="348.2" cy="106.2" r="2.55"/><circle cx="389.2" cy="106.2" r="2.55"/><circle cx="397.4" cy="106.2" r="2.55"/><circle cx="430.2" cy="106.2" r="2.55"/><circle cx="438.4" cy="106.2" r="2.55"/><circle cx="69.4" cy="114.4" r="2.55"/><circle cx="77.6" cy="114.4" r="2.55"/><circle cx="85.8" cy="114.4" r="2.55"/><circle cx="200.6" cy="114.4" r="2.55"/><circle cx="208.8" cy="114.4" r="2.55"/><circle cx="217.0" cy="114.4" r="2.55"/><circle cx="225.2" cy="114.4" r="2.55"/><circle cx="233.4" cy="114.4" r="2.55"/><circle cx="241.6" cy="114.4" r="2.55"/><circle cx="249.8" cy="114.4" r="2.55"/><circle cx="258.0" cy="114.4" r="2.55"/><circle cx="266.2" cy="114.4" r="2.55"/><circle cx="274.4" cy="114.4" r="2.55"/><circle cx="282.6" cy="114.4" r="2.55"/><circle cx="290.8" cy="114.4" r="2.55"/><circle cx="299.0" cy="114.4" r="2.55"/><circle cx="307.2" cy="114.4" r="2.55"/><circle cx="315.4" cy="114.4" r="2.55"/><circle cx="323.6" cy="114.4" r="2.55"/><circle cx="331.8" cy="114.4" r="2.55"/><circle cx="340.0" cy="114.4" r="2.55"/><circle cx="405.6" cy="114.4" r="2.55"/><circle cx="413.8" cy="114.4" r="2.55"/><circle cx="512.2" cy="114.4" r="2.55"/><circle cx="69.4" cy="122.6" r="2.55"/><circle cx="77.6" cy="122.6" r="2.55"/><circle cx="85.8" cy="122.6" r="2.55"/><circle cx="94.0" cy="122.6" r="2.55"/><circle cx="200.6" cy="122.6" r="2.55"/><circle cx="208.8" cy="122.6" r="2.55"/><circle cx="217.0" cy="122.6" r="2.55"/><circle cx="225.2" cy="122.6" r="2.55"/><circle cx="233.4" cy="122.6" r="2.55"/><circle cx="241.6" cy="122.6" r="2.55"/><circle cx="249.8" cy="122.6" r="2.55"/><circle cx="258.0" cy="122.6" r="2.55"/><circle cx="266.2" cy="122.6" r="2.55"/><circle cx="274.4" cy="122.6" r="2.55"/><circle cx="282.6" cy="122.6" r="2.55"/><circle cx="290.8" cy="122.6" r="2.55"/><circle cx="299.0" cy="122.6" r="2.55"/><circle cx="307.2" cy="122.6" r="2.55"/><circle cx="315.4" cy="122.6" r="2.55"/><circle cx="323.6" cy="122.6" r="2.55"/><circle cx="331.8" cy="122.6" r="2.55"/><circle cx="454.8" cy="122.6" r="2.55"/><circle cx="463.0" cy="122.6" r="2.55"/><circle cx="504.0" cy="122.6" r="2.55"/><circle cx="512.2" cy="122.6" r="2.55"/><circle cx="77.6" cy="130.8" r="2.55"/><circle cx="85.8" cy="130.8" r="2.55"/><circle cx="94.0" cy="130.8" r="2.55"/><circle cx="102.2" cy="130.8" r="2.55"/><circle cx="200.6" cy="130.8" r="2.55"/><circle cx="208.8" cy="130.8" r="2.55"/><circle cx="217.0" cy="130.8" r="2.55"/><circle cx="225.2" cy="130.8" r="2.55"/><circle cx="233.4" cy="130.8" r="2.55"/><circle cx="241.6" cy="130.8" r="2.55"/><circle cx="249.8" cy="130.8" r="2.55"/><circle cx="258.0" cy="130.8" r="2.55"/><circle cx="266.2" cy="130.8" r="2.55"/><circle cx="274.4" cy="130.8" r="2.55"/><circle cx="282.6" cy="130.8" r="2.55"/><circle cx="290.8" cy="130.8" r="2.55"/><circle cx="299.0" cy="130.8" r="2.55"/><circle cx="307.2" cy="130.8" r="2.55"/><circle cx="315.4" cy="130.8" r="2.55"/><circle cx="446.6" cy="130.8" r="2.55"/><circle cx="454.8" cy="130.8" r="2.55"/><circle cx="463.0" cy="130.8" r="2.55"/><circle cx="471.2" cy="130.8" r="2.55"/><circle cx="504.0" cy="130.8" r="2.55"/><circle cx="512.2" cy="130.8" r="2.55"/><circle cx="85.8" cy="139.0" r="2.55"/><circle cx="94.0" cy="139.0" r="2.55"/><circle cx="102.2" cy="139.0" r="2.55"/><circle cx="110.4" cy="139.0" r="2.55"/><circle cx="200.6" cy="139.0" r="2.55"/><circle cx="208.8" cy="139.0" r="2.55"/><circle cx="217.0" cy="139.0" r="2.55"/><circle cx="225.2" cy="139.0" r="2.55"/><circle cx="233.4" cy="139.0" r="2.55"/><circle cx="241.6" cy="139.0" r="2.55"/><circle cx="249.8" cy="139.0" r="2.55"/><circle cx="258.0" cy="139.0" r="2.55"/><circle cx="266.2" cy="139.0" r="2.55"/><circle cx="274.4" cy="139.0" r="2.55"/><circle cx="282.6" cy="139.0" r="2.55"/><circle cx="290.8" cy="139.0" r="2.55"/><circle cx="299.0" cy="139.0" r="2.55"/><circle cx="446.6" cy="139.0" r="2.55"/><circle cx="454.8" cy="139.0" r="2.55"/><circle cx="463.0" cy="139.0" r="2.55"/><circle cx="471.2" cy="139.0" r="2.55"/><circle cx="479.4" cy="139.0" r="2.55"/><circle cx="85.8" cy="147.2" r="2.55"/><circle cx="94.0" cy="147.2" r="2.55"/><circle cx="102.2" cy="147.2" r="2.55"/><circle cx="110.4" cy="147.2" r="2.55"/><circle cx="200.6" cy="147.2" r="2.55"/><circle cx="208.8" cy="147.2" r="2.55"/><circle cx="217.0" cy="147.2" r="2.55"/><circle cx="225.2" cy="147.2" r="2.55"/><circle cx="233.4" cy="147.2" r="2.55"/><circle cx="241.6" cy="147.2" r="2.55"/><circle cx="249.8" cy="147.2" r="2.55"/><circle cx="258.0" cy="147.2" r="2.55"/><circle cx="266.2" cy="147.2" r="2.55"/><circle cx="274.4" cy="147.2" r="2.55"/><circle cx="282.6" cy="147.2" r="2.55"/><circle cx="446.6" cy="147.2" r="2.55"/><circle cx="454.8" cy="147.2" r="2.55"/><circle cx="463.0" cy="147.2" r="2.55"/><circle cx="471.2" cy="147.2" r="2.55"/><circle cx="85.8" cy="155.4" r="2.55"/><circle cx="94.0" cy="155.4" r="2.55"/><circle cx="102.2" cy="155.4" r="2.55"/><circle cx="110.4" cy="155.4" r="2.55"/><circle cx="200.6" cy="155.4" r="2.55"/><circle cx="208.8" cy="155.4" r="2.55"/><circle cx="217.0" cy="155.4" r="2.55"/><circle cx="225.2" cy="155.4" r="2.55"/><circle cx="233.4" cy="155.4" r="2.55"/><circle cx="241.6" cy="155.4" r="2.55"/><circle cx="249.8" cy="155.4" r="2.55"/><circle cx="258.0" cy="155.4" r="2.55"/><circle cx="266.2" cy="155.4" r="2.55"/><circle cx="446.6" cy="155.4" r="2.55"/><circle cx="454.8" cy="155.4" r="2.55"/><circle cx="463.0" cy="155.4" r="2.55"/><circle cx="85.8" cy="163.6" r="2.55"/><circle cx="94.0" cy="163.6" r="2.55"/><circle cx="102.2" cy="163.6" r="2.55"/><circle cx="200.6" cy="163.6" r="2.55"/><circle cx="208.8" cy="163.6" r="2.55"/><circle cx="217.0" cy="163.6" r="2.55"/><circle cx="225.2" cy="163.6" r="2.55"/><circle cx="233.4" cy="163.6" r="2.55"/><circle cx="241.6" cy="163.6" r="2.55"/><circle cx="249.8" cy="163.6" r="2.55"/><circle cx="94.0" cy="171.8" r="2.55"/><circle cx="102.2" cy="171.8" r="2.55"/><circle cx="110.4" cy="171.8" r="2.55"/><circle cx="200.6" cy="171.8" r="2.55"/><circle cx="208.8" cy="171.8" r="2.55"/><circle cx="217.0" cy="171.8" r="2.55"/><circle cx="225.2" cy="171.8" r="2.55"/><circle cx="233.4" cy="171.8" r="2.55"/><circle cx="94.0" cy="180.0" r="2.55"/><circle cx="102.2" cy="180.0" r="2.55"/><circle cx="110.4" cy="180.0" r="2.55"/><circle cx="200.6" cy="180.0" r="2.55"/><circle cx="208.8" cy="180.0" r="2.55"/><circle cx="217.0" cy="180.0" r="2.55"/><circle cx="225.2" cy="180.0" r="2.55"/><circle cx="102.2" cy="188.2" r="2.55"/><circle cx="110.4" cy="188.2" r="2.55"/><circle cx="200.6" cy="188.2" r="2.55"/><circle cx="208.8" cy="188.2" r="2.55"/><circle cx="217.0" cy="188.2" r="2.55"/><circle cx="102.2" cy="196.4" r="2.55"/><circle cx="200.6" cy="196.4" r="2.55"/><circle cx="208.8" cy="196.4" r="2.55"/><circle cx="110.4" cy="204.6" r="2.55"/></g>
  <g fill="url(#txtg)" font-style="italic" font-weight="800" transform="translate(542,0)">
    <text x="0" y="118" font-size="86" letter-spacing="1">FSBC</text>
    <text x="3" y="156" font-size="40" letter-spacing="0.5">BUSINESS</text>
    <text x="3" y="188" font-size="30" letter-spacing="1">SPA.</text>
  </g>
</svg>