<svg xmlns="http://www.w3.org/2000/svg" viewBox="0 0 764 214" font-family="Arial, 'Helvetica Neue', Helvetica, sans-serif">
  <defs>
    <linearGradient id="dotg" x1="0" y1="0" x2="0" y2="1">
      <stop offset="0" stop-color="#1C7FB9"/><stop offset="1" stop-color="#45B6E1"/>
    </linearGradient>
    <linearGradient id="txtg" x1="0" y1="0" x2="1" y2="1">
      <stop offset="0" stop-color="#1B6FA8"/><stop offset="1" stop-color="#3AA9DD"/>
    </linearGradient>
  </defs>
  <g fill="url(#dotg)"><circle cx="112.0" cy="12.0" r="2"/><circle cx="118.0" cy="12.0" r="2"/><circle cx="130.0" cy="12.0" r="2"/><circle cx="136.0" cy="12.0" r="2"/><circle cx="142.0" cy="12.0" r="2"/><circle cx="154.0" cy="12.0" r="2"/><circle cx="160.0" cy="12.0" r="2"/><circle cx="166.0" cy="12.0" r="2"/><circle cx="172.0" cy="12.0" r="2"/><circle cx="178.0" cy="12.0" r="2"/><circle cx="184.0" cy="12.0" r="2"/><circle cx="190.0" cy="12.0" r="2"/><circle cx="196.0" cy="12.0" r="2"/><circle cx="202.0" cy="12.0" r="2"/><circle cx="208.0" cy="12.0" r="2"/><circle cx="214.0" cy="12.0" r="2"/><circle cx="220.0" cy="12.0" r="2"/><circle cx="274.0" cy="12.0" r="2"/><circle cx="280.0" cy="12.0" r="2"/><circle cx="382.0" cy="12.0" r="2"/><circle cx="82.0" cy="18.0" r="2"/><circle cx="88.0" cy="18.0" r="2"/><circle cx="94.0" cy="18.0" r="2"/><circle cx="106.0" cy="18.0" r="2"/><circle cx="118.0" cy="18.0" r="2"/><circle cx="130.0" cy="18.0" r="2"/><circle cx="166.0" cy="18.0" r="2"/><circle cx="172.0" cy="18.0" r="2"/><circle cx="178.0" cy="18.0" r="2"/><circle cx="184.0" cy="18.0" r="2"/><circle cx="190.0" cy="18.0" r="2"/><circle cx="196.0" cy="18.0" r="2"/><circle cx="202.0" cy="18.0" r="2"/><circle cx="208.0" cy="18.0" r="2"/><circle cx="214.0" cy="18.0" r="2"/><circle cx="334.0" cy="18.0" r="2"/><circle cx="382.0" cy="18.0" r="2"/><circle cx="388.0" cy="18.0" r="2"/><circle cx="394.0" cy="18.0" r="2"/><circle cx="400.0" cy="18.0" r="2"/><circle cx="406.0" cy="18.0" r="2"/><circle cx="442.0" cy="18.0" r="2"/><circle cx="448.0" cy="18.0" r="2"/><circle cx="76.0" cy="24.0" r="2"/><circle cx="82.0" cy="24.0" r="2"/><circle cx="88.0" cy="24.0" r="2"/><circle cx="94.0" cy="24.0" r="2"/><circle cx="112.0" cy="24.0" r="2"/><circle cx="124.0" cy="24.0" r="2"/><circle cx="130.0" cy="24.0" r="2"/><circle cx="136.0" cy="24.0" r="2"/><circle cx="142.0" cy="24.0" r="2"/><circle cx="172.0" cy="24.0" r="2"/><circle cx="178.0" cy="24.0" r="2"/><circle cx="184.0" cy="24.0" r="2"/><circle cx="190.0" cy="24.0" r="2"/><circle cx="196.0" cy="24.0" r="2"/><circle cx="202.0" cy="24.0" r="2"/><circle cx="208.0" cy="24.0" r="2"/><circle cx="214.0" cy="24.0" r="2"/><circle cx="322.0" cy="24.0" r="2"/><circle cx="346.0" cy="24.0" r="2"/><circle cx="352.0" cy="24.0" r="2"/><circle cx="358.0" cy="24.0" r="2"/><circle cx="364.0" cy="24.0" r="2"/><circle cx="370.0" cy="24.0" r="2"/><circle cx="376.0" cy="24.0" r="2"/><circle cx="382.0" cy="24.0" r="2"/><circle cx="388.0" cy="24.0" r="2"/><circle cx="394.0" cy="24.0" r="2"/><circle cx="400.0" cy="24.0" r="2"/><circle cx="406.0" cy="24.0" r="2"/><circle cx="412.0" cy="24.0" r="2"/><circle cx="418.0" cy="24.0" r="2"/><circle cx="424.0" cy="24.0" r="2"/><circle cx="436.0" cy="24.0" r="2"/><circle cx="442.0" cy="24.0" r="2"/><circle cx="448.0" cy="24.0" r="2"/><circle cx="454.0" cy="24.0" r="2"/><circle cx="16.0" cy="30.0" r="2"/><circle cx="22.0" cy="30.0" r="2"/><circle cx="28.0" cy="30.0" r="2"/><circle cx="34.0" cy="30.0" r="2"/><circle cx="40.0" cy="30.0" r="2"/><circle cx="46.0" cy="30.0" r="2"/><circle cx="52.0" cy="30.0" r="2"/><circle cx="58.0" cy="30.0" r="2"/><circle cx="64.0" cy="30.0" r="2"/><circle cx="70.0" cy="30.0" r="2"/><circle cx="76.0" cy="30.0" r="2"/><circle cx="82.0" cy="30.0" r="2"/><circle cx="88.0" cy="30.0" r="2"/><circle cx="94.0" cy="30.0" r="2"/><circle cx="100.0" cy="30.0" r="2"/><circle cx="106.0" cy="30.0" r="2"/><circle cx="112.0" cy="30.0" r="2"/><circle cx="118.0" cy="30.0" r="2"/><circle cx="124.0" cy="30.0" r="2"/><circle cx="130.0" cy="30.0" r="2"/><circle cx="148.0" cy="30.0" r="2"/><circle cx="154.0" cy="30.0" r="2"/><circle cx="172.0" cy="30.0" r="2"/><circle cx="178.0" cy="30.0" r="2"/><circle cx="184.0" cy="30.0" r="2"/><circle cx="190.0" cy="30.0" r="2"/><circle cx="196.0" cy="30.0" r="2"/><circle cx="268.0" cy="30.0" r="2"/><circle cx="274.0" cy="30.0" r="2"/><circle cx="280.0" cy="30.0" r="2"/><circle cx="286.0" cy="30.0" r="2"/><circle cx="292.0" cy="30.0" r="2"/><circle cx="298.0" cy="30.0" r="2"/><circle cx="304.0" cy="30.0" r="2"/><circle cx="310.0" cy="30.0" r="2"/><circle cx="316.0" cy="30.0" r="2"/><circle cx="322.0" cy="30.0" r="2"/><circle cx="328.0" cy="30.0" r="2"/><circle cx="334.0" cy="30.0" r="2"/><circle cx="340.0" cy="30.0" r="2"/><circle cx="346.0" cy="30.0" r="2"/><circle cx="352.0" cy="30.0" r="2"/><circle cx="358.0" cy="30.0" r="2"/><circle cx="364.0" cy="30.0" r="2"/><circle cx="370.0" cy="30.0" r="2"/><circle cx="376.0" cy="30.0" r="2"/><circle cx="382.0" cy="30.0" r="2"/><circle cx="388.0" cy="30.0" r="2"/><circle cx="394.0" cy="30.0" r="2"/><circle cx="400.0" cy="30.0" r="2"/><circle cx="406.0" cy="30.0" r="2"/><circle cx="412.0" cy="30.0" r="2"/><circle cx="418.0" cy="30.0" r="2"/><circle cx="424.0" cy="30.0" r="2"/><circle cx="430.0" cy="30.0" r="2"/><circle cx="436.0" cy="30.0" r="2"/><circle cx="442.0" cy="30.0" r="2"/><circle cx="448.0" cy="30.0" r="2"/><circle cx="454.0" cy="30.0" r="2"/><circle cx="460.0" cy="30.0" r="2"/><circle cx="466.0" cy="30.0" r="2"/><circle cx="472.0" cy="30.0" r="2"/><circle cx="478.0" cy="30.0" r="2"/><circle cx="484.0" cy="30.0" r="2"/><circle cx="490.0" cy="30.0" r="2"/><circle cx="496.0" cy="30.0" r="2"/><circle cx="16.0" cy="36.0" r="2"/><circle cx="22.0" cy="36.0" r="2"/><circle cx="28.0" cy="36.0" r="2"/><circle cx="34.0" cy="36.0" r="2"/><circle cx="40.0" cy="36.0" r="2"/><circle cx="46.0" cy="36.0" r="2"/><circle cx="52.0" cy="36.0" r="2"/><circle cx="58.0" cy="36.0" r="2"/><circle cx="64.0" cy="36.0" r="2"/><circle cx="70.0" cy="36.0" r="2"/><circle cx="76.0" cy="36.0" r="2"/><circle cx="82.0" cy="36.0" r="2"/><circle cx="88.0" cy="36.0" r="2"/><circle cx="94.0" cy="36.0" r="2"/><circle cx="100.0" cy="36.0" r="2"/><circle cx="106.0" cy="36.0" r="2"/><circle cx="112.0" cy="36.0" r="2"/><circle cx="118.0" cy="36.0" r="2"/><circle cx="148.0" cy="36.0" r="2"/><circle cx="154.0" cy="36.0" r="2"/><circle cx="178.0" cy="36.0" r="2"/><circle cx="184.0" cy="36.0" r="2"/><circle cx="262.0" cy="36.0" r="2"/><circle cx="268.0" cy="36.0" r="2"/><circle cx="280.0" cy="36.0" r="2"/><circle cx="286.0" cy="36.0" r="2"/><circle cx="292.0" cy="36.0" r="2"/><circle cx="298.0" cy="36.0" r="2"/><circle cx="304.0" cy="36.0" r="2"/><circle cx="310.0" cy="36.0" r="2"/><circle cx="316.0" cy="36.0" r="2"/><circle cx="322.0" cy="36.0" r="2"/><circle cx="328.0" cy="36.0" r="2"/><circle cx="334.0" cy="36.0" r="2"/><circle cx="340.0" cy="36.0" r="2"/><circle cx="346.0" cy="36.0" r="2"/><circle cx="352.0" cy="36.0" r="2"/><circle cx="358.0" cy="36.0" r="2"/><circle cx="364.0" cy="36.0" r="2"/><circle cx="370.0" cy="36.0" r="2"/><circle cx="376.0" cy="36.0" r="2"/><circle cx="382.0" cy="36.0" r="2"/><circle cx="388.0" cy="36.0" r="2"/><circle cx="394.0" cy="36.0" r="2"/><circle cx="400.0" cy="36.0" r="2"/><circle cx="406.0" cy="36.0" r="2"/><circle cx="412.0" cy="36.0" r="2"/><circle cx="418.0" cy="36.0" r="2"/><circle cx="424.0" cy="36.0" r="2"/><circle cx="430.0" cy="36.0" r="2"/><circle cx="436.0" cy="36.0" r="2"/><circle cx="442.0" cy="36.0" r="2"/><circle cx="448.0" cy="36.0" r="2"/><circle cx="454.0" cy="36.0" r="2"/><circle cx="460.0" cy="36.0" r="2"/><circle cx="466.0" cy="36.0" r="2"/><circle cx="472.0" cy="36.0" r="2"/><circle cx="478.0" cy="36.0" r="2"/><circle cx="484.0" cy="36.0" r="2"/><circle cx="490.0" cy="36.0" r="2"/><circle cx="496.0" cy="36.0" r="2"/><circle cx="28.0" cy="42.0" r="2"/><circle cx="52.0" cy="42.0" r="2"/><circle cx="58.0" cy="42.0" r="2"/><circle cx="64.0" cy="42.0" r="2"/><circle cx="70.0" cy="42.0" r="2"/><circle cx="76.0" cy="42.0" r="2"/><circle cx="82.0" cy="42.0" r="2"/><circle cx="88.0" cy="42.0" r="2"/><circle cx="94.0" cy="42.0" r="2"/><circle cx="100.0" cy="42.0" r="2"/><circle cx="106.0" cy="42.0" r="2"/><circle cx="112.0" cy="42.0" r="2"/><circle cx="142.0" cy="42.0" r="2"/><circle cx="148.0" cy="42.0" r="2"/><circle cx="154.0" cy="42.0" r="2"/><circle cx="256.0" cy="42.0" r="2"/><circle cx="268.0" cy="42.0" r="2"/><circle cx="280.0" cy="42.0" r="2"/><circle cx="286.0" cy="42.0" r="2"/><circle cx="292.0" cy="42.0" r="2"/><circle cx="298.0" cy="42.0" r="2"/><circle cx="304.0" cy="42.0" r="2"/><circle cx="310.0" cy="42.0" r="2"/><circle cx="316.0" cy="42.0" r="2"/><circle cx="322.0" cy="42.0" r="2"/><circle cx="328.0" cy="42.0" r="2"/><circle cx="334.0" cy="42.0" r="2"/><circle cx="340.0" cy="42.0" r="2"/><circle cx="346.0" cy="42.0" r="2"/><circle cx="352.0" cy="42.0" r="2"/><circle cx="358.0" cy="42.0" r="2"/><circle cx="364.0" cy="42.0" r="2"/><circle cx="370.0" cy="42.0" r="2"/><circle cx="376.0" cy="42.0" r="2"/><circle cx="382.0" cy="42.0" r="2"/><circle cx="388.0" cy="42.0" r="2"/><circle cx="394.0" cy="42.0" r="2"/><circle cx="400.0" cy="42.0" r="2"/><circle cx="406.0" cy="42.0" r="2"/><circle cx="412.0" cy="42.0" r="2"/><circle cx="418.0" cy="42.0" r="2"/><circle cx="424.0" cy="42.0" r="2"/><circle cx="430.0" cy="42.0" r="2"/><circle cx="436.0" cy="42.0" r="2"/><circle cx="442.0" cy="42.0" r="2"/><circle cx="472.0" cy="42.0" r="2"/><circle cx="64.0" cy="48.0" r="2"/><circle cx="70.0" cy="48.0" r="2"/><circle cx="76.0" cy="48.0" r="2"/><circle cx="82.0" cy="48.0" r="2"/><circle cx="88.0" cy="48.0" r="2"/><circle cx="94.0" cy="48.0" r="2"/><circle cx="100.0" cy="48.0" r="2"/><circle cx="106.0" cy="48.0" r="2"/><circle cx="112.0" cy="48.0" r="2"/><circle cx="118.0" cy="48.0" r="2"/><circle cx="124.0" cy="48.0" r="2"/><circle cx="130.0" cy="48.0" r="2"/><circle cx="136.0" cy="48.0" r="2"/><circle cx="142.0" cy="48.0" r="2"/><circle cx="148.0" cy="48.0" r="2"/><circle cx="154.0" cy="48.0" r="2"/><circle cx="160.0" cy="48.0" r="2"/><circle cx="238.0" cy="48.0" r="2"/><circle cx="244.0" cy="48.0" r="2"/><circle cx="280.0" cy="48.0" r="2"/><circle cx="286.0" cy="48.0" r="2"/><circle cx="292.0" cy="48.0" r="2"/><circle cx="298.0" cy="48.0" r="2"/><circle cx="304.0" cy="48.0" r="2"/><circle cx="310.0" cy="48.0" r="2"/><circle cx="316.0" cy="48.0" r="2"/><circle cx="322.0" cy="48.0" r="2"/><circle cx="328.0" cy="48.0" r="2"/><circle cx="334.0" cy="48.0" r="2"/><circle cx="340.0" cy="48.0" r="2"/><circle cx="346.0" cy="48.0" r="2"/><circle cx="352.0" cy="48.0" r="2"/><circle cx="358.0" cy="48.0" r="2"/><circle cx="364.0" cy="48.0" r="2"/><circle cx="370.0" cy="48.0" r="2"/><circle cx="376.0" cy="48.0" r="2"/><circle cx="382.0" cy="48.0" r="2"/><circle cx="388.0" cy="48.0" r="2"/><circle cx="394.0" cy="48.0" r="2"/><circle cx="400.0" cy="48.0" r="2"/><circle cx="406.0" cy="48.0" r="2"/><circle cx="412.0" cy="48.0" r="2"/><circle cx="418.0" cy="48.0" r="2"/><circle cx="424.0" cy="48.0" r="2"/><circle cx="430.0" cy="48.0" r="2"/><circle cx="436.0" cy="48.0" r="2"/><circle cx="466.0" cy="48.0" r="2"/><circle cx="472.0" cy="48.0" r="2"/><circle cx="76.0" cy="54.0" r="2"/><circle cx="82.0" cy="54.0" r="2"/><circle cx="88.0" cy="54.0" r="2"/><circle cx="94.0" cy="54.0" r="2"/><circle cx="100.0" cy="54.0" r="2"/><circle cx="106.0" cy="54.0" r="2"/><circle cx="112.0" cy="54.0" r="2"/><circle cx="118.0" cy="54.0" r="2"/><circle cx="124.0" cy="54.0" r="2"/><circle cx="130.0" cy="54.0" r="2"/><circle cx="136.0" cy="54.0" r="2"/><circle cx="142.0" cy="54.0" r="2"/><circle cx="148.0" cy="54.0" r="2"/><circle cx="160.0" cy="54.0" r="2"/><circle cx="166.0" cy="54.0" r="2"/><circle cx="250.0" cy="54.0" r="2"/><circle cx="256.0" cy="54.0" r="2"/><circle cx="262.0" cy="54.0" r="2"/><circle cx="268.0" cy="54.0" r="2"/><circle cx="274.0" cy="54.0" r="2"/><circle cx="280.0" cy="54.0" r="2"/><circle cx="286.0" cy="54.0" r="2"/><circle cx="292.0" cy="54.0" r="2"/><circle cx="298.0" cy="54.0" r="2"/><circle cx="304.0" cy="54.0" r="2"/><circle cx="310.0" cy="54.0" r="2"/><circle cx="316.0" cy="54.0" r="2"/><circle cx="322.0" cy="54.0" r="2"/><circle cx="328.0" cy="54.0" r="2"/><circle cx="334.0" cy="54.0" r="2"/><circle cx="340.0" cy="54.0" r="2"/><circle cx="346.0" cy="54.0" r="2"/><circle cx="352.0" cy="54.0" r="2"/><circle cx="358.0" cy="54.0" r="2"/><circle cx="364.0" cy="54.0" r="2"/><circle cx="370.0" cy="54.0" r="2"/><circle cx="376.0" cy="54.0" r="2"/><circle cx="382.0" cy="54.0" r="2"/><circle cx="388.0" cy="54.0" r="2"/><circle cx="394.0" cy="54.0" r="2"/><circle cx="400.0" cy="54.0" r="2"/><circle cx="406.0" cy="54.0" r="2"/><circle cx="412.0" cy="54.0" r="2"/><circle cx="418.0" cy="54.0" r="2"/><circle cx="424.0" cy="54.0" r="2"/><circle cx="430.0" cy="54.0" r="2"/><circle cx="436.0" cy="54.0" r="2"/><circle cx="442.0" cy="54.0" r="2"/><circle cx="448.0" cy="54.0" r="2"/><circle cx="76.0" cy="60.0" r="2"/><circle cx="82.0" cy="60.0" r="2"/><circle cx="88.0" cy="60.0" r="2"/><circle cx="94.0" cy="60.0" r="2"/><circle cx="100.0" cy="60.0" r="2"/><circle cx="106.0" cy="60.0" r="2"/><circle cx="112.0" cy="60.0" r="2"/><circle cx="118.0" cy="60.0" r="2"/><circle cx="124.0" cy="60.0" r="2"/><circle cx="130.0" cy="60.0" r="2"/><circle cx="136.0" cy="60.0" r="2"/><circle cx="142.0" cy="60.0" r="2"/><circle cx="148.0" cy="60.0" r="2"/><circle cx="154.0" cy="60.0" r="2"/><circle cx="160.0" cy="60.0" r="2"/><circle cx="250.0" cy="60.0" r="2"/><circle cx="256.0" cy="60.0" r="2"/><circle cx="262.0" cy="60.0" r="2"/><circle cx="268.0" cy="60.0" r="2"/><circle cx="274.0" cy="60.0" r="2"/><circle cx="280.0" cy="60.0" r="2"/><circle cx="286.0" cy="60.0" r="2"/><circle cx="304.0" cy="60.0" r="2"/><circle cx="310.0" cy="60.0" r="2"/><circle cx="322.0" cy="60.0" r="2"/><circle cx="328.0" cy="60.0" r="2"/><circle cx="334.0" cy="60.0" r="2"/><circle cx="340.0" cy="60.0" r="2"/><circle cx="346.0" cy="60.0" r="2"/><circle cx="352.0" cy="60.0" r="2"/><circle cx="358.0" cy="60.0" r="2"/><circle cx="364.0" cy="60.0" r="2"/><circle cx="370.0" cy="60.0" r="2"/><circle cx="376.0" cy="60.0" r="2"/><circle cx="382.0" cy="60.0" r="2"/><circle cx="388.0" cy="60.0" r="2"/><circle cx="394.0" cy="60.0" r="2"/><circle cx="400.0" cy="60.0" r="2"/><circle cx="406.0" cy="60.0" r="2"/><circle cx="412.0" cy="60.0" r="2"/><circle cx="418.0" cy="60.0" r="2"/><circle cx="424.0" cy="60.0" r="2"/><circle cx="430.0" cy="60.0" r="2"/><circle cx="436.0" cy="60.0" r="2"/><circle cx="76.0" cy="66.0" r="2"/><circle cx="82.0" cy="66.0" r="2"/><circle cx="88.0" cy="66.0" r="2"/><circle cx="94.0" cy="66.0" r="2"/><circle cx="100.0" cy="66.0" r="2"/><circle cx="106.0" cy="66.0" r="2"/><circle cx="112.0" cy="66.0" r="2"/><circle cx="118.0" cy="66.0" r="2"/><circle cx="124.0" cy="66.0" r="2"/><circle cx="130.0" cy="66.0" r="2"/><circle cx="136.0" cy="66.0" r="2"/><circle cx="142.0" cy="66.0" r="2"/><circle cx="148.0" cy="66.0" r="2"/><circle cx="238.0" cy="66.0" r="2"/><circle cx="244.0" cy="66.0" r="2"/><circle cx="250.0" cy="66.0" r="2"/><circle cx="268.0" cy="66.0" r="2"/><circle cx="274.0" cy="66.0" r="2"/><circle cx="280.0" cy="66.0" r="2"/><circle cx="286.0" cy="66.0" r="2"/><circle cx="292.0" cy="66.0" r="2"/><circle cx="310.0" cy="66.0" r="2"/><circle cx="328.0" cy="66.0" r="2"/><circle cx="334.0" cy="66.0" r="2"/><circle cx="340.0" cy="66.0" r="2"/><circle cx="346.0" cy="66.0" r="2"/><circle cx="352.0" cy="66.0" r="2"/><circle cx="358.0" cy="66.0" r="2"/><circle cx="364.0" cy="66.0" r="2"/><circle cx="370.0" cy="66.0" r="2"/><circle cx="376.0" cy="66.0" r="2"/><circle cx="382.0" cy="66.0" r="2"/><circle cx="388.0" cy="66.0" r="2"/><circle cx="394.0" cy="66.0" r="2"/><circle cx="400.0" cy="66.0" r="2"/><circle cx="406.0" cy="66.0" r="2"/><circle cx="412.0" cy="66.0" r="2"/><circle cx="418.0" cy="66.0" r="2"/><circle cx="424.0" cy="66.0" r="2"/><circle cx="76.0" cy="72.0" r="2"/><circle cx="82.0" cy="72.0" r="2"/><circle cx="88.0" cy="72.0" r="2"/><circle cx="94.0" cy="72.0" r="2"/><circle cx="100.0" cy="72.0" r="2"/><circle cx="106.0" cy="72.0" r="2"/><circle cx="112.0" cy="72.0" r="2"/><circle cx="118.0" cy="72.0" r="2"/><circle cx="124.0" cy="72.0" r="2"/><circle cx="130.0" cy="72.0" r="2"/><circle cx="136.0" cy="72.0" r="2"/><circle cx="238.0" cy="72.0" r="2"/><circle cx="244.0" cy="72.0" r="2"/><circle cx="286.0" cy="72.0" r="2"/><circle cx="292.0" cy="72.0" r="2"/><circle cx="298.0" cy="72.0" r="2"/><circle cx="304.0" cy="72.0" r="2"/><circle cx="310.0" cy="72.0" r="2"/><circle cx="316.0" cy="72.0" r="2"/><circle cx="328.0" cy="72.0" r="2"/><circle cx="334.0" cy="72.0" r="2"/><circle cx="340.0" cy="72.0" r="2"/><circle cx="346.0" cy="72.0" r="2"/><circle cx="352.0" cy="72.0" r="2"/><circle cx="358.0" cy="72.0" r="2"/><circle cx="364.0" cy="72.0" r="2"/><circle cx="370.0" cy="72.0" r="2"/><circle cx="376.0" cy="72.0" r="2"/><circle cx="382.0" cy="72.0" r="2"/><circle cx="388.0" cy="72.0" r="2"/><circle cx="394.0" cy="72.0" r="2"/><circle cx="400.0" cy="72.0" r="2"/><circle cx="406.0" cy="72.0" r="2"/><circle cx="412.0" cy="72.0" r="2"/><circle cx="418.0" cy="72.0" r="2"/><circle cx="442.0" cy="72.0" r="2"/><circle cx="82.0" cy="78.0" r="2"/><circle cx="88.0" cy="78.0" r="2"/><circle cx="94.0" cy="78.0" r="2"/><circle cx="100.0" cy="78.0" r="2"/><circle cx="106.0" cy="78.0" r="2"/><circle cx="112.0" cy="78.0" r="2"/><circle cx="118.0" cy="78.0" r="2"/><circle cx="124.0" cy="78.0" r="2"/><circle cx="130.0" cy="78.0" r="2"/><circle cx="238.0" cy="78.0" r="2"/><circle cx="244.0" cy="78.0" r="2"/><circle cx="250.0" cy="78.0" r="2"/><circle cx="256.0" cy="78.0" r="2"/><circle cx="262.0" cy="78.0" r="2"/><circle cx="298.0" cy="78.0" r="2"/><circle cx="304.0" cy="78.0" r="2"/><circle cx="310.0" cy="78.0" r="2"/><circle cx="316.0" cy="78.0" r="2"/><circle cx="322.0" cy="78.0" r="2"/><circle cx="328.0" cy="78.0" r="2"/><circle cx="334.0" cy="78.0" r="2"/><circle cx="340.0" cy="78.0" r="2"/><circle cx="346.0" cy="78.0" r="2"/><circle cx="352.0" cy="78.0" r="2"/><circle cx="358.0" cy="78.0" r="2"/><circle cx="364.0" cy="78.0" r="2"/><circle cx="370.0" cy="78.0" r="2"/><circle cx="376.0" cy="78.0" r="2"/><circle cx="382.0" cy="78.0" r="2"/><circle cx="388.0" cy="78.0" r="2"/><circle cx="394.0" cy="78.0" r="2"/><circle cx="400.0" cy="78.0" r="2"/><circle cx="406.0" cy="78.0" r="2"/><circle cx="412.0" cy="78.0" r="2"/><circle cx="430.0" cy="78.0" r="2"/><circle cx="94.0" cy="84.0" r="2"/><circle cx="100.0" cy="84.0" r="2"/><circle cx="106.0" cy="84.0" r="2"/><circle cx="112.0" cy="84.0" r="2"/><circle cx="130.0" cy="84.0" r="2"/><circle cx="232.0" cy="84.0" r="2"/><circle cx="238.0" cy="84.0" r="2"/><circle cx="244.0" cy="84.0" r="2"/><circle cx="250.0" cy="84.0" r="2"/><circle cx="256.0" cy="84.0" r="2"/><circle cx="262.0" cy="84.0" r="2"/><circle cx="268.0" cy="84.0" r="2"/><circle cx="274.0" cy="84.0" r="2"/><circle cx="280.0" cy="84.0" r="2"/><circle cx="286.0" cy="84.0" r="2"/><circle cx="292.0" cy="84.0" r="2"/><circle cx="298.0" cy="84.0" r="2"/><circle cx="304.0" cy="84.0" r="2"/><circle cx="310.0" cy="84.0" r="2"/><circle cx="322.0" cy="84.0" r="2"/><circle cx="328.0" cy="84.0" r="2"/><circle cx="334.0" cy="84.0" r="2"/><circle cx="340.0" cy="84.0" r="2"/><circle cx="346.0" cy="84.0" r="2"/><circle cx="352.0" cy="84.0" r="2"/><circle cx="358.0" cy="84.0" r="2"/><circle cx="364.0" cy="84.0" r="2"/><circle cx="370.0" cy="84.0" r="2"/><circle cx="376.0" cy="84.0" r="2"/><circle cx="382.0" cy="84.0" r="2"/><circle cx="388.0" cy="84.0" r="2"/><circle cx="394.0" cy="84.0" r="2"/><circle cx="400.0" cy="84.0" r="2"/><circle cx="406.0" cy="84.0" r="2"/><circle cx="412.0" cy="84.0" r="2"/><circle cx="418.0" cy="84.0" r="2"/><circle cx="100.0" cy="90.0" r="2"/><circle cx="106.0" cy="90.0" r="2"/><circle cx="226.0" cy="90.0" r="2"/><circle cx="232.0" cy="90.0" r="2"/><circle cx="238.0" cy="90.0" r="2"/><circle cx="244.0" cy="90.0" r="2"/><circle cx="250.0" cy="90.0" r="2"/><circle cx="256.0" cy="90.0" r="2"/><circle cx="262.0" cy="90.0" r="2"/><circle cx="268.0" cy="90.0" r="2"/><circle cx="274.0" cy="90.0" r="2"/><circle cx="280.0" cy="90.0" r="2"/><circle cx="286.0" cy="90.0" r="2"/><circle cx="292.0" cy="90.0" r="2"/><circle cx="304.0" cy="90.0" r="2"/><circle cx="310.0" cy="90.0" r="2"/><circle cx="316.0" cy="90.0" r="2"/><circle cx="346.0" cy="90.0" r="2"/><circle cx="352.0" cy="90.0" r="2"/><circle cx="358.0" cy="90.0" r="2"/><circle cx="364.0" cy="90.0" r="2"/><circle cx="370.0" cy="90.0" r="2"/><circle cx="376.0" cy="90.0" r="2"/><circle cx="382.0" cy="90.0" r="2"/><circle cx="388.0" cy="90.0" r="2"/><circle cx="394.0" cy="90.0" r="2"/><circle cx="400.0" cy="90.0" r="2"/><circle cx="406.0" cy="90.0" r="2"/><circle cx="412.0" cy="90.0" r="2"/><circle cx="418.0" cy="90.0" r="2"/><circle cx="100.0" cy="96.0" r="2"/><circle cx="106.0" cy="96.0" r="2"/><circle cx="226.0" cy="96.0" r="2"/><circle cx="232.0" cy="96.0" r="2"/><circle cx="238.0" cy="96.0" r="2"/><circle cx="244.0" cy="96.0" r="2"/><circle cx="250.0" cy="96.0" r="2"/><circle cx="256.0" cy="96.0" r="2"/><circle cx="262.0" cy="96.0" r="2"/><circle cx="268.0" cy="96.0" r="2"/><circle cx="274.0" cy="96.0" r="2"/><circle cx="280.0" cy="96.0" r="2"/><circle cx="286.0" cy="96.0" r="2"/><circle cx="292.0" cy="96.0" r="2"/><circle cx="298.0" cy="96.0" r="2"/><circle cx="304.0" cy="96.0" r="2"/><circle cx="310.0" cy="96.0" r="2"/><circle cx="316.0" cy="96.0" r="2"/><circle cx="322.0" cy="96.0" r="2"/><circle cx="328.0" cy="96.0" r="2"/><circle cx="352.0" cy="96.0" r="2"/><circle cx="358.0" cy="96.0" r="2"/><circle cx="364.0" cy="96.0" r="2"/><circle cx="382.0" cy="96.0" r="2"/><circle cx="388.0" cy="96.0" r="2"/><circle cx="394.0" cy="96.0" r="2"/><circle cx="112.0" cy="102.0" r="2"/><circle cx="118.0" cy="102.0" r="2"/><circle cx="226.0" cy="102.0" r="2"/><circle cx="232.0" cy="102.0" r="2"/><circle cx="238.0" cy="102.0" r="2"/><circle cx="244.0" cy="102.0" r="2"/><circle cx="250.0" cy="102.0" r="2"/><circle cx="256.0" cy="102.0" r="2"/><circle cx="262.0" cy="102.0" r="2"/><circle cx="268.0" cy="102.0" r="2"/><circle cx="274.0" cy="102.0" r="2"/><circle cx="280.0" cy="102.0" r="2"/><circle cx="286.0" cy="102.0" r="2"/><circle cx="292.0" cy="102.0" r="2"/><circle cx="298.0" cy="102.0" r="2"/><circle cx="310.0" cy="102.0" r="2"/><circle cx="316.0" cy="102.0" r="2"/><circle cx="352.0" cy="102.0" r="2"/><circle cx="358.0" cy="102.0" r="2"/><circle cx="388.0" cy="102.0" r="2"/><circle cx="394.0" cy="102.0" r="2"/><circle cx="418.0" cy="102.0" r="2"/><circle cx="148.0" cy="108.0" r="2"/><circle cx="226.0" cy="108.0" r="2"/><circle cx="232.0" cy="108.0" r="2"/><circle cx="238.0" cy="108.0" r="2"/><circle cx="244.0" cy="108.0" r="2"/><circle cx="250.0" cy="108.0" r="2"/><circle cx="256.0" cy="108.0" r="2"/><circle cx="262.0" cy="108.0" r="2"/><circle cx="268.0" cy="108.0" r="2"/><circle cx="274.0" cy="108.0" r="2"/><circle cx="280.0" cy="108.0" r="2"/><circle cx="286.0" cy="108.0" r="2"/><circle cx="292.0" cy="108.0" r="2"/><circle cx="298.0" cy="108.0" r="2"/><circle cx="304.0" cy="108.0" r="2"/><circle cx="358.0" cy="108.0" r="2"/><circle cx="394.0" cy="108.0" r="2"/><circle cx="400.0" cy="108.0" r="2"/><circle cx="142.0" cy="114.0" r="2"/><circle cx="148.0" cy="114.0" r="2"/><circle cx="154.0" cy="114.0" r="2"/><circle cx="160.0" cy="114.0" r="2"/><circle cx="232.0" cy="114.0" r="2"/><circle cx="238.0" cy="114.0" r="2"/><circle cx="244.0" cy="114.0" r="2"/><circle cx="250.0" cy="114.0" r="2"/><circle cx="256.0" cy="114.0" r="2"/><circle cx="262.0" cy="114.0" r="2"/><circle cx="268.0" cy="114.0" r="2"/><circle cx="274.0" cy="114.0" r="2"/><circle cx="280.0" cy="114.0" r="2"/><circle cx="286.0" cy="114.0" r="2"/><circle cx="292.0" cy="114.0" r="2"/><circle cx="298.0" cy="114.0" r="2"/><circle cx="304.0" cy="114.0" r="2"/><circle cx="310.0" cy="114.0" r="2"/><circle cx="316.0" cy="114.0" r="2"/><circle cx="424.0" cy="114.0" r="2"/><circle cx="142.0" cy="120.0" r="2"/><circle cx="148.0" cy="120.0" r="2"/><circle cx="154.0" cy="120.0" r="2"/><circle cx="160.0" cy="120.0" r="2"/><circle cx="166.0" cy="120.0" r="2"/><circle cx="172.0" cy="120.0" r="2"/><circle cx="262.0" cy="120.0" r="2"/><circle cx="268.0" cy="120.0" r="2"/><circle cx="274.0" cy="120.0" r="2"/><circle cx="280.0" cy="120.0" r="2"/><circle cx="286.0" cy="120.0" r="2"/><circle cx="292.0" cy="120.0" r="2"/><circle cx="298.0" cy="120.0" r="2"/><circle cx="304.0" cy="120.0" r="2"/><circle cx="310.0" cy="120.0" r="2"/><circle cx="406.0" cy="120.0" r="2"/><circle cx="136.0" cy="126.0" r="2"/><circle cx="142.0" cy="126.0" r="2"/><circle cx="148.0" cy="126.0" r="2"/><circle cx="154.0" cy="126.0" r="2"/><circle cx="160.0" cy="126.0" r="2"/><circle cx="166.0" cy="126.0" r="2"/><circle cx="172.0" cy="126.0" r="2"/><circle cx="178.0" cy="126.0" r="2"/><circle cx="262.0" cy="126.0" r="2"/><circle cx="268.0" cy="126.0" r="2"/><circle cx="274.0" cy="126.0" r="2"/><circle cx="280.0" cy="126.0" r="2"/><circle cx="286.0" cy="126.0" r="2"/><circle cx="292.0" cy="126.0" r="2"/><circle cx="298.0" cy="126.0" r="2"/><circle cx="304.0" cy="126.0" r="2"/><circle cx="388.0" cy="126.0" r="2"/><circle cx="406.0" cy="126.0" r="2"/><circle cx="418.0" cy="126.0" r="2"/><circle cx="136.0" cy="132.0" r="2"/><circle cx="142.0" cy="132.0" r="2"/><circle cx="148.0" cy="132.0" r="2"/><circle cx="154.0" cy="132.0" r="2"/><circle cx="160.0" cy="132.0" r="2"/><circle cx="166.0" cy="132.0" r="2"/><circle cx="172.0" cy="132.0" r="2"/><circle cx="178.0" cy="132.0" r="2"/><circle cx="184.0" cy="132.0" r="2"/><circle cx="190.0" cy="132.0" r="2"/><circle cx="196.0" cy="132.0" r="2"/><circle cx="268.0" cy="132.0" r="2"/><circle cx="274.0" cy="132.0" r="2"/><circle cx="280.0" cy="132.0" r="2"/><circle cx="286.0" cy="132.0" r="2"/><circle cx="292.0" cy="132.0" r="2"/><circle cx="298.0" cy="132.0" r="2"/><circle cx="394.0" cy="132.0" r="2"/><circle cx="442.0" cy="132.0" r="2"/><circle cx="448.0" cy="132.0" r="2"/><circle cx="460.0" cy="132.0" r="2"/><circle cx="136.0" cy="138.0" r="2"/><circle cx="142.0" cy="138.0" r="2"/><circle cx="148.0" cy="138.0" r="2"/><circle cx="154.0" cy="138.0" r="2"/><circle cx="160.0" cy="138.0" r="2"/><circle cx="166.0" cy="138.0" r="2"/><circle cx="172.0" cy="138.0" r="2"/><circle cx="178.0" cy="138.0" r="2"/><circle cx="184.0" cy="138.0" r="2"/><circle cx="190.0" cy="138.0" r="2"/><circle cx="196.0" cy="138.0" r="2"/><circle cx="268.0" cy="138.0" r="2"/><circle cx="274.0" cy="138.0" r="2"/><circle cx="280.0" cy="138.0" r="2"/><circle cx="286.0" cy="138.0" r="2"/><circle cx="292.0" cy="138.0" r="2"/><circle cx="298.0" cy="138.0" r="2"/><circle cx="454.0" cy="138.0" r="2"/><circle cx="472.0" cy="138.0" r="2"/><circle cx="142.0" cy="144.0" r="2"/><circle cx="148.0" cy="144.0" r="2"/><circle cx="154.0" cy="144.0" r="2"/><circle cx="160.0" cy="144.0" r="2"/><circle cx="166.0" cy="144.0" r="2"/><circle cx="172.0" cy="144.0" r="2"/><circle cx="178.0" cy="144.0" r="2"/><circle cx="184.0" cy="144.0" r="2"/><circle cx="190.0" cy="144.0" r="2"/><circle cx="268.0" cy="144.0" r="2"/><circle cx="274.0" cy="144.0" r="2"/><circle cx="280.0" cy="144.0" r="2"/><circle cx="286.0" cy="144.0" r="2"/><circle cx="292.0" cy="144.0" r="2"/><circle cx="298.0" cy="144.0" r="2"/><circle cx="316.0" cy="144.0" r="2"/><circle cx="430.0" cy="144.0" r="2"/><circle cx="436.0" cy="144.0" r="2"/><circle cx="448.0" cy="144.0" r="2"/><circle cx="148.0" cy="150.0" r="2"/><circle cx="154.0" cy="150.0" r="2"/><circle cx="160.0" cy="150.0" r="2"/><circle cx="166.0" cy="150.0" r="2"/><circle cx="172.0" cy="150.0" r="2"/><circle cx="178.0" cy="150.0" r="2"/><circle cx="184.0" cy="150.0" r="2"/><circle cx="190.0" cy="150.0" r="2"/><circle cx="268.0" cy="150.0" r="2"/><circle cx="274.0" cy="150.0" r="2"/><circle cx="280.0" cy="150.0" r="2"/><circle cx="286.0" cy="150.0" r="2"/><circle cx="292.0" cy="150.0" r="2"/><circle cx="298.0" cy="150.0" r="2"/><circle cx="310.0" cy="150.0" r="2"/><circle cx="316.0" cy="150.0" r="2"/><circle cx="424.0" cy="150.0" r="2"/><circle cx="430.0" cy="150.0" r="2"/><circle cx="436.0" cy="150.0" r="2"/><circle cx="442.0" cy="150.0" r="2"/><circle cx="448.0" cy="150.0" r="2"/><circle cx="148.0" cy="156.0" r="2"/><circle cx="154.0" cy="156.0" r="2"/><circle cx="160.0" cy="156.0" r="2"/><circle cx="166.0" cy="156.0" r="2"/><circle cx="172.0" cy="156.0" r="2"/><circle cx="178.0" cy="156.0" r="2"/><circle cx="184.0" cy="156.0" r="2"/><circle cx="268.0" cy="156.0" r="2"/><circle cx="274.0" cy="156.0" r="2"/><circle cx="280.0" cy="156.0" r="2"/><circle cx="286.0" cy="156.0" r="2"/><circle cx="292.0" cy="156.0" r="2"/><circle cx="310.0" cy="156.0" r="2"/><circle cx="412.0" cy="156.0" r="2"/><circle cx="418.0" cy="156.0" r="2"/><circle cx="424.0" cy="156.0" r="2"/><circle cx="430.0" cy="156.0" r="2"/><circle cx="436.0" cy="156.0" r="2"/><circle cx="442.0" cy="156.0" r="2"/><circle cx="448.0" cy="156.0" r="2"/><circle cx="454.0" cy="156.0" r="2"/><circle cx="148.0" cy="162.0" r="2"/><circle cx="154.0" cy="162.0" r="2"/><circle cx="160.0" cy="162.0" r="2"/><circle cx="166.0" cy="162.0" r="2"/><circle cx="172.0" cy="162.0" r="2"/><circle cx="178.0" cy="162.0" r="2"/><circle cx="268.0" cy="162.0" r="2"/><circle cx="274.0" cy="162.0" r="2"/><circle cx="280.0" cy="162.0" r="2"/><circle cx="286.0" cy="162.0" r="2"/><circle cx="292.0" cy="162.0" r="2"/><circle cx="412.0" cy="162.0" r="2"/><circle cx="418.0" cy="162.0" r="2"/><circle cx="424.0" cy="162.0" r="2"/><circle cx="430.0" cy="162.0" r="2"/><circle cx="436.0" cy="162.0" r="2"/><circle cx="442.0" cy="162.0" r="2"/><circle cx="448.0" cy="162.0" r="2"/><circle cx="454.0" cy="162.0" r="2"/><circle cx="460.0" cy="162.0" r="2"/><circle cx="148.0" cy="168.0" r="2"/><circle cx="154.0" cy="168.0" r="2"/><circle cx="160.0" cy="168.0" r="2"/><circle cx="166.0" cy="168.0" r="2"/><circle cx="172.0" cy="168.0" r="2"/><circle cx="274.0" cy="168.0" r="2"/><circle cx="280.0" cy="168.0" r="2"/><circle cx="286.0" cy="168.0" r="2"/><circle cx="412.0" cy="168.0" r="2"/><circle cx="418.0" cy="168.0" r="2"/><circle cx="424.0" cy="168.0" r="2"/><circle cx="430.0" cy="168.0" r="2"/><circle cx="436.0" cy="168.0" r="2"/><circle cx="442.0" cy="168.0" r="2"/><circle cx="448.0" cy="168.0" r="2"/><circle cx="454.0" cy="168.0" r="2"/><circle cx="460.0" cy="168.0" r="2"/><circle cx="148.0" cy="174.0" r="2"/><circle cx="154.0" cy="174.0" r="2"/><circle cx="160.0" cy="174.0" r="2"/><circle cx="442.0" cy="174.0" r="2"/><circle cx="448.0" cy="174.0" r="2"/><circle cx="454.0" cy="174.0" r="2"/><circle cx="148.0" cy="180.0" r="2"/><circle cx="154.0" cy="180.0" r="2"/><circle cx="148.0" cy="186.0" r="2"/><circle cx="154.0" cy="186.0" r="2"/><circle cx="142.0" cy="192.0" r="2"/><circle cx="148.0" cy="192.0" r="2"/><circle cx="142.0" cy="198.0" r="2"/><circle cx="148.0" cy="198.0" r="2"/></g>
  <g fill="url(#txtg)" font-style="italic" font-weight="800" transform="translate(532,77)">
    <text x="0" y="34" font-size="80" letter-spacing="1">FSBC</text>
    <text x="3" y="70" font-size="37" letter-spacing="0.5">BUSINESS</text>
    <text x="3" y="99" font-size="27" letter-spacing="1">SPA.</text>
  </g>
</svg>